<svg fill="#f1f1f1" id="Layer_1" height="20" viewBox="0 0 32 32" width="20" xmlns="http://www.w3.org/2000/svg"><path d="m15.985 10.813c-.556.009-.999.462-.988 1.019v7.582l-1.123-1.123c-.188-.193-.444-.302-.715-.303-.553-.001-1.001.445-1.002.998 0 .271.11.532.307.723l2.828 2.828c.392.388 1.021.388 1.41 0l2.834-2.828c.383-.399.37-1.034-.029-1.417-.388-.371-.999-.372-1.387-.001l-1.123 1.127v-7.586c.011-.565-.448-1.025-1.012-1.019zm15.015 10.512c0 3.023-2.465 5.49-5.484 5.49-5.973 0-11.944 0-17.916 0-3.642 0-6.6-2.966-6.6-6.612 0-3.271 2.493-5.748 5.609-6.275.307-4.714 3.951-8.345 9.317-8.743 5.58.398 9.545 4.275 9.545 9.286-.001.463-.125.908-.074 1.362 3.139 0 5.603 2.467 5.603 5.492z"/></svg>