<svg fill="#f1f1f1" id="Capa_1" enable-background="new 0 0 469.333 469.333" height="22" viewBox="0 0 469.333 469.333" width="30" xmlns="http://www.w3.org/2000/svg"><g><g id="Layer_2_6_"><path d="m21.333 128h426.667c11.782 0 21.333-9.551 21.333-21.333s-9.551-21.334-21.333-21.334h-426.667c-11.782 0-21.333 9.552-21.333 21.334s9.551 21.333 21.333 21.333z"/><path d="m448 213.333h-426.667c-11.782 0-21.333 9.552-21.333 21.334s9.551 21.333 21.333 21.333h426.667c11.782 0 21.333-9.551 21.333-21.333s-9.551-21.334-21.333-21.334z"/><path d="m448 341.333h-426.667c-11.782 0-21.333 9.552-21.333 21.334s9.551 21.333 21.333 21.333h426.667c11.782 0 21.333-9.551 21.333-21.333s-9.551-21.334-21.333-21.334z"/></g></g></svg>