<?xml version="1.0" encoding="iso-8859-1"?>
<!-- Generator: Adobe Illustrator 19.0.0, SVG Export Plug-In . SVG Version: 6.00 Build 0)  -->
<svg fill="#f1f1f1" width="20px" height="20px" version="1.1" id="Layer_1" xmlns="http://www.w3.org/2000/svg" xmlns:xlink="http://www.w3.org/1999/xlink" x="0px" y="0px"
	 viewBox="0 0 512 512" style="enable-background:new 0 0 512 512;" xml:space="preserve">
<g>
	<g>
		<path d="M496.327,32.444H15.673C7.022,32.444,0,39.455,0,48.118v337.105c0,8.662,7.022,15.673,15.673,15.673h480.653
			c8.652,0,15.673-7.011,15.673-15.673V48.118C512,39.455,504.978,32.444,496.327,32.444z M460.581,333.531
			c0,8.662-7.022,15.673-15.673,15.673H67.093c-8.652,0-15.673-7.011-15.673-15.673V99.809c0-8.662,7.022-15.673,15.673-15.673
			h377.814c8.652,0,15.673,7.011,15.673,15.673V333.531z"/>
	</g>
</g>
<g>
	<g>
		<path d="M364.053,458.491l-9.634-26.248H157.581l-9.634,26.248c-3.733,10.161,3.785,21.065,14.712,21.065h186.681
			C360.255,479.556,367.792,468.666,364.053,458.491z"/>
	</g>
</g>
<g>
</g>
<g>
</g>
<g>
</g>
<g>
</g>
<g>
</g>
<g>
</g>
<g>
</g>
<g>
</g>
<g>
</g>
<g>
</g>
<g>
</g>
<g>
</g>
<g>
</g>
<g>
</g>
<g>
</g>
</svg>
